<mxfile host="app.diagrams.net" modified="2023-11-11T15:27:12.675Z" agent="Mozilla/5.0 (Windows NT 10.0; Win64; x64) AppleWebKit/537.36 (KHTML, like Gecko) Chrome/119.0.0.0 Safari/537.36 Edg/119.0.0.0" etag="9reEwIkuVhRt9aI9_sGn" version="21.8.2" type="device">
  <diagram id="R2lEEEUBdFMjLlhIrx00" name="Page-1">
    <mxGraphModel dx="472" dy="256" grid="1" gridSize="10" guides="1" tooltips="1" connect="1" arrows="1" fold="1" page="1" pageScale="1" pageWidth="850" pageHeight="1100" math="0" shadow="0" extFonts="Permanent Marker^https://fonts.googleapis.com/css?family=Permanent+Marker">
      <root>
        <mxCell id="0" />
        <mxCell id="1" parent="0" />
        <mxCell id="C-vyLk0tnHw3VtMMgP7b-1" value="" style="edgeStyle=entityRelationEdgeStyle;endArrow=ERzeroToMany;startArrow=ERone;endFill=1;startFill=0;" parent="1" source="C-vyLk0tnHw3VtMMgP7b-24" target="C-vyLk0tnHw3VtMMgP7b-6" edge="1">
          <mxGeometry width="100" height="100" relative="1" as="geometry">
            <mxPoint x="340" y="720" as="sourcePoint" />
            <mxPoint x="440" y="620" as="targetPoint" />
          </mxGeometry>
        </mxCell>
        <mxCell id="C-vyLk0tnHw3VtMMgP7b-12" value="" style="edgeStyle=entityRelationEdgeStyle;endArrow=ERzeroToMany;startArrow=ERone;endFill=1;startFill=0;" parent="1" source="C-vyLk0tnHw3VtMMgP7b-3" target="C-vyLk0tnHw3VtMMgP7b-17" edge="1">
          <mxGeometry width="100" height="100" relative="1" as="geometry">
            <mxPoint x="400" y="180" as="sourcePoint" />
            <mxPoint x="460" y="205" as="targetPoint" />
          </mxGeometry>
        </mxCell>
        <mxCell id="C-vyLk0tnHw3VtMMgP7b-13" value="Message" style="shape=table;startSize=30;container=1;collapsible=1;childLayout=tableLayout;fixedRows=1;rowLines=0;fontStyle=1;align=center;resizeLast=1;" parent="1" vertex="1">
          <mxGeometry x="450" y="400" width="250" height="240" as="geometry" />
        </mxCell>
        <mxCell id="C-vyLk0tnHw3VtMMgP7b-17" value="" style="shape=partialRectangle;collapsible=0;dropTarget=0;pointerEvents=0;fillColor=none;points=[[0,0.5],[1,0.5]];portConstraint=eastwest;top=0;left=0;right=0;bottom=0;" parent="C-vyLk0tnHw3VtMMgP7b-13" vertex="1">
          <mxGeometry y="30" width="250" height="30" as="geometry" />
        </mxCell>
        <mxCell id="C-vyLk0tnHw3VtMMgP7b-18" value="FK1" style="shape=partialRectangle;overflow=hidden;connectable=0;fillColor=none;top=0;left=0;bottom=0;right=0;" parent="C-vyLk0tnHw3VtMMgP7b-17" vertex="1">
          <mxGeometry width="30" height="30" as="geometry">
            <mxRectangle width="30" height="30" as="alternateBounds" />
          </mxGeometry>
        </mxCell>
        <mxCell id="C-vyLk0tnHw3VtMMgP7b-19" value="device INT NOT NULLÂ " style="shape=partialRectangle;overflow=hidden;connectable=0;fillColor=none;top=0;left=0;bottom=0;right=0;align=left;spacingLeft=6;" parent="C-vyLk0tnHw3VtMMgP7b-17" vertex="1">
          <mxGeometry x="30" width="220" height="30" as="geometry">
            <mxRectangle width="220" height="30" as="alternateBounds" />
          </mxGeometry>
        </mxCell>
        <mxCell id="C-vyLk0tnHw3VtMMgP7b-20" value="" style="shape=partialRectangle;collapsible=0;dropTarget=0;pointerEvents=0;fillColor=none;points=[[0,0.5],[1,0.5]];portConstraint=eastwest;top=0;left=0;right=0;bottom=0;" parent="C-vyLk0tnHw3VtMMgP7b-13" vertex="1">
          <mxGeometry y="60" width="250" height="30" as="geometry" />
        </mxCell>
        <mxCell id="C-vyLk0tnHw3VtMMgP7b-21" value="" style="shape=partialRectangle;overflow=hidden;connectable=0;fillColor=none;top=0;left=0;bottom=0;right=0;" parent="C-vyLk0tnHw3VtMMgP7b-20" vertex="1">
          <mxGeometry width="30" height="30" as="geometry">
            <mxRectangle width="30" height="30" as="alternateBounds" />
          </mxGeometry>
        </mxCell>
        <mxCell id="C-vyLk0tnHw3VtMMgP7b-22" value="lat DECIMAL NOL NULL" style="shape=partialRectangle;overflow=hidden;connectable=0;fillColor=none;top=0;left=0;bottom=0;right=0;align=left;spacingLeft=6;" parent="C-vyLk0tnHw3VtMMgP7b-20" vertex="1">
          <mxGeometry x="30" width="220" height="30" as="geometry">
            <mxRectangle width="220" height="30" as="alternateBounds" />
          </mxGeometry>
        </mxCell>
        <mxCell id="7TBAABKrwWSZESGbf_oN-4" value="" style="shape=partialRectangle;collapsible=0;dropTarget=0;pointerEvents=0;fillColor=none;points=[[0,0.5],[1,0.5]];portConstraint=eastwest;top=0;left=0;right=0;bottom=0;" vertex="1" parent="1">
          <mxGeometry x="120" y="240" width="270" height="70" as="geometry" />
        </mxCell>
        <mxCell id="7TBAABKrwWSZESGbf_oN-5" value="" style="shape=partialRectangle;overflow=hidden;connectable=0;fillColor=none;top=0;left=0;bottom=0;right=0;" vertex="1" parent="7TBAABKrwWSZESGbf_oN-4">
          <mxGeometry width="30" height="70" as="geometry">
            <mxRectangle width="30" height="70" as="alternateBounds" />
          </mxGeometry>
        </mxCell>
        <mxCell id="7TBAABKrwWSZESGbf_oN-12" value="" style="group" vertex="1" connectable="0" parent="1">
          <mxGeometry x="120" y="120" width="270" height="180" as="geometry" />
        </mxCell>
        <mxCell id="7TBAABKrwWSZESGbf_oN-10" value="" style="group" vertex="1" connectable="0" parent="7TBAABKrwWSZESGbf_oN-12">
          <mxGeometry width="270" height="180" as="geometry" />
        </mxCell>
        <mxCell id="C-vyLk0tnHw3VtMMgP7b-23" value="User" style="shape=table;startSize=30;container=1;collapsible=1;childLayout=tableLayout;fixedRows=1;rowLines=0;fontStyle=1;align=center;resizeLast=1;" parent="7TBAABKrwWSZESGbf_oN-10" vertex="1">
          <mxGeometry width="270" height="180" as="geometry" />
        </mxCell>
        <mxCell id="C-vyLk0tnHw3VtMMgP7b-24" value="" style="shape=partialRectangle;collapsible=0;dropTarget=0;pointerEvents=0;fillColor=none;points=[[0,0.5],[1,0.5]];portConstraint=eastwest;top=0;left=0;right=0;bottom=1;" parent="C-vyLk0tnHw3VtMMgP7b-23" vertex="1">
          <mxGeometry y="30" width="270" height="30" as="geometry" />
        </mxCell>
        <mxCell id="C-vyLk0tnHw3VtMMgP7b-25" value="PK" style="shape=partialRectangle;overflow=hidden;connectable=0;fillColor=none;top=0;left=0;bottom=0;right=0;fontStyle=1;" parent="C-vyLk0tnHw3VtMMgP7b-24" vertex="1">
          <mxGeometry width="30" height="30" as="geometry">
            <mxRectangle width="30" height="30" as="alternateBounds" />
          </mxGeometry>
        </mxCell>
        <mxCell id="C-vyLk0tnHw3VtMMgP7b-26" value="id int NOT NULL AUTO_INCREMENT" style="shape=partialRectangle;overflow=hidden;connectable=0;fillColor=none;top=0;left=0;bottom=0;right=0;align=left;spacingLeft=6;fontStyle=5;" parent="C-vyLk0tnHw3VtMMgP7b-24" vertex="1">
          <mxGeometry x="30" width="240" height="30" as="geometry">
            <mxRectangle width="240" height="30" as="alternateBounds" />
          </mxGeometry>
        </mxCell>
        <mxCell id="C-vyLk0tnHw3VtMMgP7b-27" value="" style="shape=partialRectangle;collapsible=0;dropTarget=0;pointerEvents=0;fillColor=none;points=[[0,0.5],[1,0.5]];portConstraint=eastwest;top=0;left=0;right=0;bottom=0;" parent="C-vyLk0tnHw3VtMMgP7b-23" vertex="1">
          <mxGeometry y="60" width="270" height="30" as="geometry" />
        </mxCell>
        <mxCell id="C-vyLk0tnHw3VtMMgP7b-28" value="" style="shape=partialRectangle;overflow=hidden;connectable=0;fillColor=none;top=0;left=0;bottom=0;right=0;" parent="C-vyLk0tnHw3VtMMgP7b-27" vertex="1">
          <mxGeometry width="30" height="30" as="geometry">
            <mxRectangle width="30" height="30" as="alternateBounds" />
          </mxGeometry>
        </mxCell>
        <mxCell id="C-vyLk0tnHw3VtMMgP7b-29" value="name VARCHAR(128) NOT NULL" style="shape=partialRectangle;overflow=hidden;connectable=0;fillColor=none;top=0;left=0;bottom=0;right=0;align=left;spacingLeft=6;" parent="C-vyLk0tnHw3VtMMgP7b-27" vertex="1">
          <mxGeometry x="30" width="240" height="30" as="geometry">
            <mxRectangle width="240" height="30" as="alternateBounds" />
          </mxGeometry>
        </mxCell>
        <mxCell id="7TBAABKrwWSZESGbf_oN-6" value="password VARCHAR(128) NOT NULL" style="shape=partialRectangle;overflow=hidden;connectable=0;fillColor=none;top=0;left=0;bottom=0;right=0;align=left;spacingLeft=6;container=1;" vertex="1" parent="7TBAABKrwWSZESGbf_oN-10">
          <mxGeometry x="30" y="90" width="240" height="30" as="geometry">
            <mxRectangle width="240" height="70" as="alternateBounds" />
          </mxGeometry>
        </mxCell>
        <mxCell id="7TBAABKrwWSZESGbf_oN-8" value="&lt;span style=&quot;color: rgb(0, 0, 0); font-family: Helvetica; font-size: 12px; font-style: normal; font-variant-ligatures: normal; font-variant-caps: normal; font-weight: 400; letter-spacing: normal; orphans: 2; text-align: left; text-indent: 0px; text-transform: none; widows: 2; word-spacing: 0px; -webkit-text-stroke-width: 0px; background-color: rgb(251, 251, 251); text-decoration-thickness: initial; text-decoration-style: initial; text-decoration-color: initial; float: none; display: inline !important;&quot;&gt;&amp;nbsp; email VARCHAR(128) NOT NULL UNIQUE&lt;/span&gt;" style="text;whiteSpace=wrap;html=1;" vertex="1" parent="7TBAABKrwWSZESGbf_oN-10">
          <mxGeometry x="30" y="120" width="240" height="30" as="geometry" />
        </mxCell>
        <mxCell id="7TBAABKrwWSZESGbf_oN-9" value="&lt;span style=&quot;color: rgb(0, 0, 0); font-family: Helvetica; font-size: 12px; font-style: normal; font-variant-ligatures: normal; font-variant-caps: normal; font-weight: 400; letter-spacing: normal; orphans: 2; text-align: left; text-indent: 0px; text-transform: none; widows: 2; word-spacing: 0px; -webkit-text-stroke-width: 0px; background-color: rgb(251, 251, 251); text-decoration-thickness: initial; text-decoration-style: initial; text-decoration-color: initial; float: none; display: inline !important;&quot;&gt;&amp;nbsp; phone VARCHAR(128) NOT NULL&amp;nbsp;&lt;/span&gt;" style="text;whiteSpace=wrap;html=1;" vertex="1" parent="7TBAABKrwWSZESGbf_oN-10">
          <mxGeometry x="30" y="150" width="240" height="30" as="geometry" />
        </mxCell>
        <mxCell id="7TBAABKrwWSZESGbf_oN-11" value="" style="endArrow=none;html=1;rounded=0;exitX=0;exitY=1;exitDx=0;exitDy=0;" edge="1" parent="7TBAABKrwWSZESGbf_oN-12" source="7TBAABKrwWSZESGbf_oN-9">
          <mxGeometry width="50" height="50" relative="1" as="geometry">
            <mxPoint x="60" y="150" as="sourcePoint" />
            <mxPoint x="30" y="90" as="targetPoint" />
          </mxGeometry>
        </mxCell>
        <mxCell id="7TBAABKrwWSZESGbf_oN-14" value="" style="group" vertex="1" connectable="0" parent="1">
          <mxGeometry x="450" y="90" width="280" height="210" as="geometry" />
        </mxCell>
        <mxCell id="C-vyLk0tnHw3VtMMgP7b-2" value="Device" style="shape=table;startSize=30;container=1;collapsible=1;childLayout=tableLayout;fixedRows=1;rowLines=0;fontStyle=1;align=center;resizeLast=1;" parent="7TBAABKrwWSZESGbf_oN-14" vertex="1">
          <mxGeometry width="280" height="210" as="geometry" />
        </mxCell>
        <mxCell id="C-vyLk0tnHw3VtMMgP7b-3" value="" style="shape=partialRectangle;collapsible=0;dropTarget=0;pointerEvents=0;fillColor=none;points=[[0,0.5],[1,0.5]];portConstraint=eastwest;top=0;left=0;right=0;bottom=1;" parent="C-vyLk0tnHw3VtMMgP7b-2" vertex="1">
          <mxGeometry y="30" width="280" height="30" as="geometry" />
        </mxCell>
        <mxCell id="C-vyLk0tnHw3VtMMgP7b-4" value="PK" style="shape=partialRectangle;overflow=hidden;connectable=0;fillColor=none;top=0;left=0;bottom=0;right=0;fontStyle=1;" parent="C-vyLk0tnHw3VtMMgP7b-3" vertex="1">
          <mxGeometry width="30" height="30" as="geometry">
            <mxRectangle width="30" height="30" as="alternateBounds" />
          </mxGeometry>
        </mxCell>
        <mxCell id="C-vyLk0tnHw3VtMMgP7b-5" value="id int NOT NULL AUTO_INCRECEMENT" style="shape=partialRectangle;overflow=hidden;connectable=0;fillColor=none;top=0;left=0;bottom=0;right=0;align=left;spacingLeft=6;fontStyle=5;" parent="C-vyLk0tnHw3VtMMgP7b-3" vertex="1">
          <mxGeometry x="30" width="250" height="30" as="geometry">
            <mxRectangle width="250" height="30" as="alternateBounds" />
          </mxGeometry>
        </mxCell>
        <mxCell id="C-vyLk0tnHw3VtMMgP7b-6" value="" style="shape=partialRectangle;collapsible=0;dropTarget=0;pointerEvents=0;fillColor=none;points=[[0,0.5],[1,0.5]];portConstraint=eastwest;top=0;left=0;right=0;bottom=0;" parent="C-vyLk0tnHw3VtMMgP7b-2" vertex="1">
          <mxGeometry y="60" width="280" height="30" as="geometry" />
        </mxCell>
        <mxCell id="C-vyLk0tnHw3VtMMgP7b-7" value="FK1" style="shape=partialRectangle;overflow=hidden;connectable=0;fillColor=none;top=0;left=0;bottom=0;right=0;" parent="C-vyLk0tnHw3VtMMgP7b-6" vertex="1">
          <mxGeometry width="30" height="30" as="geometry">
            <mxRectangle width="30" height="30" as="alternateBounds" />
          </mxGeometry>
        </mxCell>
        <mxCell id="C-vyLk0tnHw3VtMMgP7b-8" value="user_id INT NOT NULLÂ " style="shape=partialRectangle;overflow=hidden;connectable=0;fillColor=none;top=0;left=0;bottom=0;right=0;align=left;spacingLeft=6;" parent="C-vyLk0tnHw3VtMMgP7b-6" vertex="1">
          <mxGeometry x="30" width="250" height="30" as="geometry">
            <mxRectangle width="250" height="30" as="alternateBounds" />
          </mxGeometry>
        </mxCell>
        <mxCell id="C-vyLk0tnHw3VtMMgP7b-9" value="" style="shape=partialRectangle;collapsible=0;dropTarget=0;pointerEvents=0;fillColor=none;points=[[0,0.5],[1,0.5]];portConstraint=eastwest;top=0;left=0;right=0;bottom=0;" parent="C-vyLk0tnHw3VtMMgP7b-2" vertex="1">
          <mxGeometry y="90" width="280" height="30" as="geometry" />
        </mxCell>
        <mxCell id="C-vyLk0tnHw3VtMMgP7b-10" value="" style="shape=partialRectangle;overflow=hidden;connectable=0;fillColor=none;top=0;left=0;bottom=0;right=0;strokeColor=default;" parent="C-vyLk0tnHw3VtMMgP7b-9" vertex="1">
          <mxGeometry width="30" height="30" as="geometry">
            <mxRectangle width="30" height="30" as="alternateBounds" />
          </mxGeometry>
        </mxCell>
        <mxCell id="C-vyLk0tnHw3VtMMgP7b-11" value="name VARCHAR(128) NOT NULL" style="shape=partialRectangle;overflow=hidden;connectable=0;fillColor=none;top=0;left=0;bottom=0;right=0;align=left;spacingLeft=6;strokeColor=default;" parent="C-vyLk0tnHw3VtMMgP7b-9" vertex="1">
          <mxGeometry x="30" width="250" height="30" as="geometry">
            <mxRectangle width="250" height="30" as="alternateBounds" />
          </mxGeometry>
        </mxCell>
        <mxCell id="7TBAABKrwWSZESGbf_oN-1" value="desc VARCHAR(128) NOT NULL" style="shape=partialRectangle;overflow=hidden;connectable=0;fillColor=none;top=0;left=0;bottom=0;right=0;align=left;spacingLeft=6;" vertex="1" parent="7TBAABKrwWSZESGbf_oN-14">
          <mxGeometry x="30" y="120" width="220" height="30" as="geometry">
            <mxRectangle width="220" height="30" as="alternateBounds" />
          </mxGeometry>
        </mxCell>
        <mxCell id="7TBAABKrwWSZESGbf_oN-2" value="type VARCHAR(128) NOT NULL" style="shape=partialRectangle;overflow=hidden;connectable=0;fillColor=none;top=0;left=0;bottom=0;right=0;align=left;spacingLeft=6;" vertex="1" parent="7TBAABKrwWSZESGbf_oN-14">
          <mxGeometry x="30" y="150" width="220" height="30" as="geometry">
            <mxRectangle width="220" height="30" as="alternateBounds" />
          </mxGeometry>
        </mxCell>
        <mxCell id="7TBAABKrwWSZESGbf_oN-3" value="last_active TIME NOT NULL" style="shape=partialRectangle;overflow=hidden;connectable=0;fillColor=none;top=0;left=0;bottom=0;right=0;align=left;spacingLeft=6;" vertex="1" parent="7TBAABKrwWSZESGbf_oN-14">
          <mxGeometry x="30" y="180" width="220" height="30" as="geometry">
            <mxRectangle width="220" height="30" as="alternateBounds" />
          </mxGeometry>
        </mxCell>
        <mxCell id="7TBAABKrwWSZESGbf_oN-13" value="" style="endArrow=none;html=1;rounded=0;" edge="1" parent="7TBAABKrwWSZESGbf_oN-14">
          <mxGeometry width="50" height="50" relative="1" as="geometry">
            <mxPoint x="30" y="210" as="sourcePoint" />
            <mxPoint x="30" y="120" as="targetPoint" />
          </mxGeometry>
        </mxCell>
        <mxCell id="7TBAABKrwWSZESGbf_oN-15" value="lng DECIMAL NOL NULL" style="shape=partialRectangle;overflow=hidden;connectable=0;fillColor=none;top=0;left=0;bottom=0;right=0;align=left;spacingLeft=6;" vertex="1" parent="1">
          <mxGeometry x="480" y="490" width="220" height="30" as="geometry">
            <mxRectangle width="220" height="30" as="alternateBounds" />
          </mxGeometry>
        </mxCell>
        <mxCell id="7TBAABKrwWSZESGbf_oN-16" value="info VARCHAR(128) NOL NULL" style="shape=partialRectangle;overflow=hidden;connectable=0;fillColor=none;top=0;left=0;bottom=0;right=0;align=left;spacingLeft=6;" vertex="1" parent="1">
          <mxGeometry x="480" y="580" width="220" height="30" as="geometry">
            <mxRectangle width="220" height="30" as="alternateBounds" />
          </mxGeometry>
        </mxCell>
        <mxCell id="7TBAABKrwWSZESGbf_oN-17" value="timestamp TIME NOL NULL" style="shape=partialRectangle;overflow=hidden;connectable=0;fillColor=none;top=0;left=0;bottom=0;right=0;align=left;spacingLeft=6;" vertex="1" parent="1">
          <mxGeometry x="480" y="550" width="220" height="30" as="geometry">
            <mxRectangle width="220" height="30" as="alternateBounds" />
          </mxGeometry>
        </mxCell>
        <mxCell id="7TBAABKrwWSZESGbf_oN-18" value="alert BOOLEAN NOL NULL" style="shape=partialRectangle;overflow=hidden;connectable=0;fillColor=none;top=0;left=0;bottom=0;right=0;align=left;spacingLeft=6;" vertex="1" parent="1">
          <mxGeometry x="480" y="520" width="220" height="30" as="geometry">
            <mxRectangle width="220" height="30" as="alternateBounds" />
          </mxGeometry>
        </mxCell>
        <mxCell id="7TBAABKrwWSZESGbf_oN-19" value="value INT NOL NULL" style="shape=partialRectangle;overflow=hidden;connectable=0;fillColor=none;top=0;left=0;bottom=0;right=0;align=left;spacingLeft=6;" vertex="1" parent="1">
          <mxGeometry x="480" y="610" width="220" height="30" as="geometry">
            <mxRectangle width="220" height="30" as="alternateBounds" />
          </mxGeometry>
        </mxCell>
        <mxCell id="7TBAABKrwWSZESGbf_oN-20" value="" style="endArrow=none;html=1;rounded=0;" edge="1" parent="1">
          <mxGeometry width="50" height="50" relative="1" as="geometry">
            <mxPoint x="480" y="640" as="sourcePoint" />
            <mxPoint x="480" y="490" as="targetPoint" />
          </mxGeometry>
        </mxCell>
      </root>
    </mxGraphModel>
  </diagram>
</mxfile>
